<?xml version="1.0" standalone="no"?>
<!DOCTYPE svg PUBLIC "-//W3C//DTD SVG 20010904//EN"
 "http://www.w3.org/TR/2001/REC-SVG-20010904/DTD/svg10.dtd">
<svg version="1.0" xmlns="http://www.w3.org/2000/svg"
 width="383.000000pt" height="103.000000pt" viewBox="0 0 383.000000 103.000000"
 preserveAspectRatio="xMidYMid meet">

<g transform="translate(0.000000,103.000000) scale(0.100000,-0.100000)"
fill="#000000" stroke="none">
<path d="M100 975 c-11 -13 192 -15 1819 -15 l1831 0 0 -450 0 -450 -1845 0
-1845 0 -2 442 c-2 342 -6 442 -15 446 -10 3 -13 -93 -13 -457 l0 -461 1870 0
1870 0 0 480 0 480 -1829 0 c-1613 0 -1830 -2 -1841 -15z"/>
<path d="M35 970 c3 -5 8 -10 11 -10 2 0 4 5 4 10 0 6 -5 10 -11 10 -5 0 -7
-4 -4 -10z"/>
<path d="M120 510 l0 -390 950 0 950 0 0 390 0 390 -950 0 -950 0 0 -390z
m314 136 c31 -13 76 -59 76 -77 0 -19 -34 -7 -60 21 -48 51 -130 37 -156 -27
-29 -69 15 -143 86 -143 28 0 76 26 83 45 7 16 47 21 47 6 0 -22 -55 -72 -91
-82 -74 -23 -167 31 -171 99 -4 82 12 120 65 152 38 23 75 25 121 6z m341 0
c67 -28 96 -126 59 -197 -21 -41 -93 -73 -141 -64 -74 14 -113 61 -113 137 0
104 96 165 195 124z m435 -112 l0 -114 65 0 c51 0 65 -3 65 -15 0 -12 -16 -15
-80 -15 l-80 0 0 135 c0 115 2 134 15 129 12 -5 15 -28 15 -120z m652 104 c27
-13 34 -57 15 -90 -9 -15 -13 -28 -8 -28 10 0 31 -45 31 -66 0 -8 -11 -26 -25
-39 -21 -22 -33 -25 -100 -25 l-75 0 0 129 0 130 43 3 c49 4 95 -1 119 -14z
m-882 -103 l0 -115 60 0 c47 0 60 -3 60 -15 0 -12 -16 -15 -80 -15 l-80 0 0
130 c0 123 1 130 20 130 19 0 20 -7 20 -115z m594 -2 c27 -65 51 -124 53 -130
3 -8 -3 -13 -15 -13 -12 0 -24 11 -32 30 -12 29 -15 30 -74 30 -59 0 -62 -1
-73 -30 -7 -20 -18 -30 -32 -30 -18 0 -16 9 30 122 60 146 56 138 78 138 13 0
30 -31 65 -117z"/>
<path d="M665 608 c-33 -19 -44 -41 -45 -85 0 -63 34 -98 95 -98 62 0 95 35
95 100 0 36 -5 47 -31 69 -33 28 -80 34 -114 14z"/>
<path d="M1740 580 l0 -41 46 3 c31 2 51 9 58 21 19 29 -4 52 -58 55 l-46 3 0
-41z"/>
<path d="M1740 465 l0 -48 51 5 c47 5 69 18 69 43 0 25 -22 38 -69 43 l-51 5
0 -48z"/>
<path d="M1485 548 c-9 -24 -19 -49 -22 -55 -4 -9 8 -13 41 -13 25 0 46 4 46
9 0 11 -40 101 -44 101 -2 0 -12 -19 -21 -42z"/>
<path d="M2571 650 c-51 -12 -92 -59 -98 -112 -10 -85 49 -148 137 -148 57 0
88 16 118 60 19 29 23 44 19 84 -4 41 -11 55 -41 83 -19 18 -44 33 -55 33 -11
0 -25 2 -33 4 -7 2 -28 0 -47 -4z m84 -85 c30 -29 32 -55 7 -86 -22 -26 -75
-31 -97 -8 -28 29 -29 66 -1 93 32 33 60 33 91 1z"/>
<path d="M2220 519 l0 -131 89 4 c70 2 93 7 110 22 24 22 27 63 7 91 -10 14
-11 25 -4 38 5 10 8 32 6 50 -4 43 -35 57 -130 57 l-78 0 0 -131z m138 54 c3
-20 -1 -23 -32 -23 -32 0 -36 3 -36 26 0 23 3 25 33 22 24 -2 33 -8 35 -25z
m2 -83 c23 -15 -1 -45 -36 -45 -24 0 -30 5 -32 28 -3 24 0 27 25 27 15 0 35
-5 43 -10z"/>
<path d="M2870 647 c0 -1 -22 -60 -49 -130 l-49 -127 38 0 c30 0 40 5 45 20 5
16 15 20 55 20 39 0 49 -3 53 -20 4 -15 14 -20 41 -20 20 0 36 3 36 8 0 4 -21
62 -47 130 l-48 122 -37 0 c-21 0 -38 -1 -38 -3z m55 -123 c19 -47 20 -44 -16
-44 -24 0 -30 3 -25 16 3 9 9 27 12 40 8 32 11 31 29 -12z"/>
<path d="M3080 521 l0 -131 35 0 c34 0 35 1 35 40 0 29 4 40 15 40 8 0 24 -18
35 -40 19 -37 24 -40 60 -40 l40 0 -22 46 c-15 30 -19 47 -12 52 22 14 36 55
30 87 -11 55 -37 70 -132 74 l-84 3 0 -131z m138 57 c7 -7 12 -15 12 -19 0
-16 -33 -39 -56 -39 -21 0 -24 5 -24 35 0 32 3 35 28 35 15 0 33 -5 40 -12z"/>
<path d="M3350 521 l0 -131 68 0 c95 0 151 29 172 88 13 37 13 47 0 84 -23 64
-56 82 -156 87 l-84 3 0 -131z m158 41 c17 -22 15 -67 -4 -86 -8 -9 -31 -16
-50 -16 l-34 0 0 58 c0 32 3 62 7 66 11 11 67 -4 81 -22z"/>
</g>
</svg>
