<?xml version="1.0" standalone="no"?>
<!DOCTYPE svg PUBLIC "-//W3C//DTD SVG 20010904//EN"
 "http://www.w3.org/TR/2001/REC-SVG-20010904/DTD/svg10.dtd">
<svg version="1.0" xmlns="http://www.w3.org/2000/svg"
 width="135.000000pt" height="105.000000pt" viewBox="0 0 135.000000 105.000000"
 preserveAspectRatio="xMidYMid meet">

<g transform="translate(0.000000,105.000000) scale(0.100000,-0.100000)"
fill="#000000" stroke="none">
<path d="M127 1003 c-4 -3 -7 -10 -7 -15 0 -4 263 -8 585 -8 l585 0 0 -450 0
-450 -620 0 -620 0 0 440 c0 384 -2 440 -15 440 -13 0 -15 -57 -15 -455 l0
-455 650 0 650 0 0 480 0 480 -593 0 c-327 0 -597 -3 -600 -7z"/>
<path d="M150 530 l0 -390 305 0 305 0 0 390 0 390 -305 0 -305 0 0 -390z
m455 140 c30 -12 75 -57 75 -76 0 -23 -27 -16 -58 16 -42 41 -92 41 -133 1
-62 -62 -20 -171 66 -171 27 0 44 8 67 30 49 49 83 31 37 -19 -68 -73 -179
-58 -224 29 -57 109 55 234 170 190z"/>
<path d="M850 540 l0 -130 75 0 c88 0 131 17 141 56 5 18 0 34 -14 53 -17 24
-18 29 -6 46 21 29 17 61 -12 84 -22 17 -41 21 -105 21 l-79 0 0 -130z m130
65 c17 -20 4 -35 -31 -35 -24 0 -29 4 -29 25 0 20 5 25 24 25 13 0 29 -7 36
-15z m8 -109 c5 -22 -13 -36 -45 -36 -19 0 -23 5 -23 31 0 28 2 30 32 27 23
-2 34 -9 36 -22z"/>
</g>
</svg>
